<mxfile host="app.diagrams.net" modified="2024-05-13T08:27:45.683Z" agent="Mozilla/5.0 (Macintosh; Intel Mac OS X 10.15; rv:125.0) Gecko/20100101 Firefox/125.0" etag="faRaZ8gknIxBGDhFfU3K" version="24.3.1" type="device">
  <diagram name="Page-1" id="FzaJG3xEwVWiVA3lc7FO">
    <mxGraphModel dx="1354" dy="880" grid="1" gridSize="10" guides="1" tooltips="1" connect="1" arrows="1" fold="1" page="1" pageScale="1" pageWidth="1169" pageHeight="827" math="0" shadow="0">
      <root>
        <mxCell id="0" />
        <mxCell id="1" parent="0" />
        <mxCell id="iCtBEtqFeT84g1pX9Pqj-1" value="&lt;div&gt;users&lt;/div&gt;" style="rounded=0;whiteSpace=wrap;html=1;" vertex="1" parent="1">
          <mxGeometry x="220" y="464" width="100" height="40" as="geometry" />
        </mxCell>
        <mxCell id="iCtBEtqFeT84g1pX9Pqj-2" value="wineries" style="rounded=0;whiteSpace=wrap;html=1;" vertex="1" parent="1">
          <mxGeometry x="555" y="454" width="120" height="60" as="geometry" />
        </mxCell>
        <mxCell id="iCtBEtqFeT84g1pX9Pqj-3" value="&lt;div&gt;wines&lt;br&gt;&lt;/div&gt;" style="rounded=0;whiteSpace=wrap;html=1;" vertex="1" parent="1">
          <mxGeometry x="560" y="660" width="120" height="60" as="geometry" />
        </mxCell>
        <mxCell id="iCtBEtqFeT84g1pX9Pqj-4" value="user_id" style="ellipse;whiteSpace=wrap;html=1;" vertex="1" parent="1">
          <mxGeometry x="90" y="434" width="100" height="50" as="geometry" />
        </mxCell>
        <mxCell id="iCtBEtqFeT84g1pX9Pqj-5" value="&lt;div&gt;user_name&lt;/div&gt;" style="ellipse;whiteSpace=wrap;html=1;" vertex="1" parent="1">
          <mxGeometry x="90" y="494" width="100" height="50" as="geometry" />
        </mxCell>
        <mxCell id="iCtBEtqFeT84g1pX9Pqj-6" value="" style="endArrow=none;html=1;rounded=0;exitX=1;exitY=0.5;exitDx=0;exitDy=0;" edge="1" parent="1" source="iCtBEtqFeT84g1pX9Pqj-4">
          <mxGeometry width="50" height="50" relative="1" as="geometry">
            <mxPoint x="190" y="444" as="sourcePoint" />
            <mxPoint x="220" y="464" as="targetPoint" />
          </mxGeometry>
        </mxCell>
        <mxCell id="iCtBEtqFeT84g1pX9Pqj-7" value="" style="endArrow=none;html=1;rounded=0;entryX=0;entryY=1;entryDx=0;entryDy=0;" edge="1" parent="1" target="iCtBEtqFeT84g1pX9Pqj-1">
          <mxGeometry width="50" height="50" relative="1" as="geometry">
            <mxPoint x="190" y="524" as="sourcePoint" />
            <mxPoint x="240" y="474" as="targetPoint" />
          </mxGeometry>
        </mxCell>
        <mxCell id="iCtBEtqFeT84g1pX9Pqj-8" value="password" style="ellipse;whiteSpace=wrap;html=1;" vertex="1" parent="1">
          <mxGeometry x="90" y="554" width="90" height="50" as="geometry" />
        </mxCell>
        <mxCell id="iCtBEtqFeT84g1pX9Pqj-9" value="" style="endArrow=none;html=1;rounded=0;entryX=0;entryY=1;entryDx=0;entryDy=0;exitX=1;exitY=0.5;exitDx=0;exitDy=0;" edge="1" parent="1" source="iCtBEtqFeT84g1pX9Pqj-8" target="iCtBEtqFeT84g1pX9Pqj-1">
          <mxGeometry width="50" height="50" relative="1" as="geometry">
            <mxPoint x="180" y="594" as="sourcePoint" />
            <mxPoint x="230" y="544" as="targetPoint" />
          </mxGeometry>
        </mxCell>
        <mxCell id="iCtBEtqFeT84g1pX9Pqj-10" value="email" style="ellipse;whiteSpace=wrap;html=1;" vertex="1" parent="1">
          <mxGeometry x="90" y="364" width="100" height="50" as="geometry" />
        </mxCell>
        <mxCell id="iCtBEtqFeT84g1pX9Pqj-11" value="" style="endArrow=none;html=1;rounded=0;entryX=0;entryY=0;entryDx=0;entryDy=0;" edge="1" parent="1" target="iCtBEtqFeT84g1pX9Pqj-1">
          <mxGeometry width="50" height="50" relative="1" as="geometry">
            <mxPoint x="190" y="394" as="sourcePoint" />
            <mxPoint x="240" y="344" as="targetPoint" />
          </mxGeometry>
        </mxCell>
        <mxCell id="iCtBEtqFeT84g1pX9Pqj-12" value="search" style="rhombus;whiteSpace=wrap;html=1;" vertex="1" parent="1">
          <mxGeometry x="340" y="437" width="100" height="94" as="geometry" />
        </mxCell>
        <mxCell id="iCtBEtqFeT84g1pX9Pqj-13" value="reviews" style="rounded=0;whiteSpace=wrap;html=1;" vertex="1" parent="1">
          <mxGeometry x="560" y="210" width="120" height="60" as="geometry" />
        </mxCell>
        <mxCell id="iCtBEtqFeT84g1pX9Pqj-14" value="" style="endArrow=none;html=1;rounded=0;entryX=0;entryY=0.5;entryDx=0;entryDy=0;exitX=1;exitY=0.5;exitDx=0;exitDy=0;" edge="1" parent="1" source="iCtBEtqFeT84g1pX9Pqj-1" target="iCtBEtqFeT84g1pX9Pqj-12">
          <mxGeometry width="50" height="50" relative="1" as="geometry">
            <mxPoint x="280" y="405" as="sourcePoint" />
            <mxPoint x="330" y="355" as="targetPoint" />
          </mxGeometry>
        </mxCell>
        <mxCell id="iCtBEtqFeT84g1pX9Pqj-15" value="" style="endArrow=none;html=1;rounded=0;exitX=0.5;exitY=0;exitDx=0;exitDy=0;entryX=0;entryY=1;entryDx=0;entryDy=0;" edge="1" parent="1" source="iCtBEtqFeT84g1pX9Pqj-12" target="iCtBEtqFeT84g1pX9Pqj-13">
          <mxGeometry width="50" height="50" relative="1" as="geometry">
            <mxPoint x="650" y="327.5" as="sourcePoint" />
            <mxPoint x="630" y="197.5" as="targetPoint" />
          </mxGeometry>
        </mxCell>
        <mxCell id="iCtBEtqFeT84g1pX9Pqj-16" value="red_wines" style="rounded=0;whiteSpace=wrap;html=1;" vertex="1" parent="1">
          <mxGeometry x="340" y="890" width="120" height="60" as="geometry" />
        </mxCell>
        <mxCell id="iCtBEtqFeT84g1pX9Pqj-17" value="white_wines" style="rounded=0;whiteSpace=wrap;html=1;" vertex="1" parent="1">
          <mxGeometry x="485" y="890" width="120" height="60" as="geometry" />
        </mxCell>
        <mxCell id="iCtBEtqFeT84g1pX9Pqj-18" value="rose_wines" style="rounded=0;whiteSpace=wrap;html=1;" vertex="1" parent="1">
          <mxGeometry x="620" y="890" width="120" height="60" as="geometry" />
        </mxCell>
        <mxCell id="iCtBEtqFeT84g1pX9Pqj-19" value="other_wines" style="rounded=0;whiteSpace=wrap;html=1;" vertex="1" parent="1">
          <mxGeometry x="760" y="890" width="120" height="60" as="geometry" />
        </mxCell>
        <mxCell id="iCtBEtqFeT84g1pX9Pqj-27" value="ISA" style="shape=trapezoid;perimeter=trapezoidPerimeter;whiteSpace=wrap;html=1;fixedSize=1;size=60;" vertex="1" parent="1">
          <mxGeometry x="575" y="760" width="90" height="50" as="geometry" />
        </mxCell>
        <mxCell id="iCtBEtqFeT84g1pX9Pqj-28" value="" style="endArrow=none;html=1;rounded=0;entryX=0;entryY=1;entryDx=0;entryDy=0;" edge="1" parent="1" target="iCtBEtqFeT84g1pX9Pqj-27">
          <mxGeometry width="50" height="50" relative="1" as="geometry">
            <mxPoint x="400" y="890" as="sourcePoint" />
            <mxPoint x="450" y="840" as="targetPoint" />
          </mxGeometry>
        </mxCell>
        <mxCell id="iCtBEtqFeT84g1pX9Pqj-29" value="" style="endArrow=none;html=1;rounded=0;entryX=0.25;entryY=1;entryDx=0;entryDy=0;" edge="1" parent="1" target="iCtBEtqFeT84g1pX9Pqj-27">
          <mxGeometry width="50" height="50" relative="1" as="geometry">
            <mxPoint x="540" y="890" as="sourcePoint" />
            <mxPoint x="590" y="840" as="targetPoint" />
          </mxGeometry>
        </mxCell>
        <mxCell id="iCtBEtqFeT84g1pX9Pqj-30" value="" style="endArrow=none;html=1;rounded=0;exitX=0.5;exitY=0;exitDx=0;exitDy=0;" edge="1" parent="1" source="iCtBEtqFeT84g1pX9Pqj-18">
          <mxGeometry width="50" height="50" relative="1" as="geometry">
            <mxPoint x="570" y="860" as="sourcePoint" />
            <mxPoint x="620" y="810" as="targetPoint" />
          </mxGeometry>
        </mxCell>
        <mxCell id="iCtBEtqFeT84g1pX9Pqj-31" value="" style="endArrow=none;html=1;rounded=0;entryX=1;entryY=1;entryDx=0;entryDy=0;exitX=0.5;exitY=0;exitDx=0;exitDy=0;" edge="1" parent="1" source="iCtBEtqFeT84g1pX9Pqj-19" target="iCtBEtqFeT84g1pX9Pqj-27">
          <mxGeometry width="50" height="50" relative="1" as="geometry">
            <mxPoint x="630" y="930" as="sourcePoint" />
            <mxPoint x="680" y="880" as="targetPoint" />
          </mxGeometry>
        </mxCell>
        <mxCell id="iCtBEtqFeT84g1pX9Pqj-32" value="" style="endArrow=none;html=1;rounded=0;exitX=0.5;exitY=0;exitDx=0;exitDy=0;" edge="1" parent="1" source="iCtBEtqFeT84g1pX9Pqj-27">
          <mxGeometry width="50" height="50" relative="1" as="geometry">
            <mxPoint x="570" y="770" as="sourcePoint" />
            <mxPoint x="620" y="720" as="targetPoint" />
          </mxGeometry>
        </mxCell>
        <mxCell id="iCtBEtqFeT84g1pX9Pqj-33" value="description" style="ellipse;whiteSpace=wrap;html=1;" vertex="1" parent="1">
          <mxGeometry x="470" y="130" width="80" height="55" as="geometry" />
        </mxCell>
        <mxCell id="iCtBEtqFeT84g1pX9Pqj-34" value="" style="endArrow=none;html=1;rounded=0;entryX=0.5;entryY=1;entryDx=0;entryDy=0;" edge="1" parent="1" source="iCtBEtqFeT84g1pX9Pqj-13" target="iCtBEtqFeT84g1pX9Pqj-33">
          <mxGeometry width="50" height="50" relative="1" as="geometry">
            <mxPoint x="450" y="145" as="sourcePoint" />
            <mxPoint x="600" y="175" as="targetPoint" />
          </mxGeometry>
        </mxCell>
        <mxCell id="iCtBEtqFeT84g1pX9Pqj-35" value="points" style="ellipse;whiteSpace=wrap;html=1;" vertex="1" parent="1">
          <mxGeometry x="575" y="120" width="80" height="50" as="geometry" />
        </mxCell>
        <mxCell id="iCtBEtqFeT84g1pX9Pqj-37" value="" style="endArrow=none;html=1;rounded=0;exitX=0.5;exitY=0;exitDx=0;exitDy=0;entryX=0.5;entryY=1;entryDx=0;entryDy=0;" edge="1" parent="1" source="iCtBEtqFeT84g1pX9Pqj-13" target="iCtBEtqFeT84g1pX9Pqj-35">
          <mxGeometry width="50" height="50" relative="1" as="geometry">
            <mxPoint x="600" y="205" as="sourcePoint" />
            <mxPoint x="650" y="155" as="targetPoint" />
          </mxGeometry>
        </mxCell>
        <mxCell id="iCtBEtqFeT84g1pX9Pqj-39" value="grapes" style="rounded=0;whiteSpace=wrap;html=1;" vertex="1" parent="1">
          <mxGeometry x="960" y="660" width="120" height="60" as="geometry" />
        </mxCell>
        <mxCell id="iCtBEtqFeT84g1pX9Pqj-40" value="grape_variaty" style="ellipse;whiteSpace=wrap;html=1;" vertex="1" parent="1">
          <mxGeometry x="960" y="770" width="120" height="80" as="geometry" />
        </mxCell>
        <mxCell id="iCtBEtqFeT84g1pX9Pqj-41" value="wine_region" style="ellipse;whiteSpace=wrap;html=1;" vertex="1" parent="1">
          <mxGeometry x="340" y="680" width="120" height="80" as="geometry" />
        </mxCell>
        <mxCell id="iCtBEtqFeT84g1pX9Pqj-42" value="wine_id" style="ellipse;whiteSpace=wrap;html=1;" vertex="1" parent="1">
          <mxGeometry x="340" y="760" width="120" height="80" as="geometry" />
        </mxCell>
        <mxCell id="iCtBEtqFeT84g1pX9Pqj-45" value="" style="endArrow=none;html=1;rounded=0;entryX=0.5;entryY=1;entryDx=0;entryDy=0;" edge="1" parent="1" target="iCtBEtqFeT84g1pX9Pqj-39">
          <mxGeometry width="50" height="50" relative="1" as="geometry">
            <mxPoint x="1020" y="770" as="sourcePoint" />
            <mxPoint x="1070" y="720" as="targetPoint" />
          </mxGeometry>
        </mxCell>
        <mxCell id="iCtBEtqFeT84g1pX9Pqj-46" value="made_with" style="rhombus;whiteSpace=wrap;html=1;" vertex="1" parent="1">
          <mxGeometry x="760" y="650" width="80" height="80" as="geometry" />
        </mxCell>
        <mxCell id="iCtBEtqFeT84g1pX9Pqj-47" value="" style="endArrow=none;html=1;rounded=0;entryX=0;entryY=0.5;entryDx=0;entryDy=0;" edge="1" parent="1" target="iCtBEtqFeT84g1pX9Pqj-39">
          <mxGeometry width="50" height="50" relative="1" as="geometry">
            <mxPoint x="840" y="690" as="sourcePoint" />
            <mxPoint x="890" y="640" as="targetPoint" />
          </mxGeometry>
        </mxCell>
        <mxCell id="iCtBEtqFeT84g1pX9Pqj-48" value="" style="endArrow=none;html=1;rounded=0;entryX=0;entryY=0.5;entryDx=0;entryDy=0;exitX=1;exitY=0.5;exitDx=0;exitDy=0;" edge="1" parent="1" source="iCtBEtqFeT84g1pX9Pqj-3" target="iCtBEtqFeT84g1pX9Pqj-46">
          <mxGeometry width="50" height="50" relative="1" as="geometry">
            <mxPoint x="680" y="697" as="sourcePoint" />
            <mxPoint x="730" y="647" as="targetPoint" />
          </mxGeometry>
        </mxCell>
        <mxCell id="iCtBEtqFeT84g1pX9Pqj-49" value="" style="endArrow=none;html=1;rounded=0;entryX=0;entryY=1;entryDx=0;entryDy=0;exitX=1.008;exitY=0.588;exitDx=0;exitDy=0;exitPerimeter=0;" edge="1" parent="1" source="iCtBEtqFeT84g1pX9Pqj-41" target="iCtBEtqFeT84g1pX9Pqj-3">
          <mxGeometry width="50" height="50" relative="1" as="geometry">
            <mxPoint x="490" y="590" as="sourcePoint" />
            <mxPoint x="550" y="650" as="targetPoint" />
          </mxGeometry>
        </mxCell>
        <mxCell id="iCtBEtqFeT84g1pX9Pqj-50" value="" style="endArrow=none;html=1;rounded=0;entryX=0;entryY=1;entryDx=0;entryDy=0;exitX=1;exitY=0.5;exitDx=0;exitDy=0;" edge="1" parent="1" source="iCtBEtqFeT84g1pX9Pqj-42" target="iCtBEtqFeT84g1pX9Pqj-3">
          <mxGeometry width="50" height="50" relative="1" as="geometry">
            <mxPoint x="490" y="725" as="sourcePoint" />
            <mxPoint x="540" y="675" as="targetPoint" />
          </mxGeometry>
        </mxCell>
        <mxCell id="iCtBEtqFeT84g1pX9Pqj-51" value="wine_name" style="ellipse;whiteSpace=wrap;html=1;" vertex="1" parent="1">
          <mxGeometry x="350" y="590" width="120" height="80" as="geometry" />
        </mxCell>
        <mxCell id="iCtBEtqFeT84g1pX9Pqj-53" value="" style="endArrow=none;html=1;rounded=0;entryX=0;entryY=0;entryDx=0;entryDy=0;exitX=1;exitY=0.588;exitDx=0;exitDy=0;exitPerimeter=0;" edge="1" parent="1" source="iCtBEtqFeT84g1pX9Pqj-51" target="iCtBEtqFeT84g1pX9Pqj-3">
          <mxGeometry width="50" height="50" relative="1" as="geometry">
            <mxPoint x="485" y="560" as="sourcePoint" />
            <mxPoint x="535" y="510" as="targetPoint" />
          </mxGeometry>
        </mxCell>
        <mxCell id="iCtBEtqFeT84g1pX9Pqj-54" value="makes" style="rhombus;whiteSpace=wrap;html=1;" vertex="1" parent="1">
          <mxGeometry x="575" y="544" width="80" height="80" as="geometry" />
        </mxCell>
        <mxCell id="iCtBEtqFeT84g1pX9Pqj-55" value="" style="endArrow=none;html=1;rounded=0;exitX=0.5;exitY=0;exitDx=0;exitDy=0;entryX=0.5;entryY=1;entryDx=0;entryDy=0;" edge="1" parent="1" source="iCtBEtqFeT84g1pX9Pqj-3" target="iCtBEtqFeT84g1pX9Pqj-54">
          <mxGeometry width="50" height="50" relative="1" as="geometry">
            <mxPoint x="655" y="620" as="sourcePoint" />
            <mxPoint x="705" y="570" as="targetPoint" />
          </mxGeometry>
        </mxCell>
        <mxCell id="iCtBEtqFeT84g1pX9Pqj-56" value="" style="endArrow=none;html=1;rounded=0;entryX=0.5;entryY=1;entryDx=0;entryDy=0;exitX=0.5;exitY=0;exitDx=0;exitDy=0;" edge="1" parent="1" source="iCtBEtqFeT84g1pX9Pqj-54" target="iCtBEtqFeT84g1pX9Pqj-2">
          <mxGeometry width="50" height="50" relative="1" as="geometry">
            <mxPoint x="705" y="590" as="sourcePoint" />
            <mxPoint x="755" y="540" as="targetPoint" />
          </mxGeometry>
        </mxCell>
        <mxCell id="iCtBEtqFeT84g1pX9Pqj-57" value="winary_name" style="ellipse;whiteSpace=wrap;html=1;" vertex="1" parent="1">
          <mxGeometry x="520" y="354" width="110" height="60" as="geometry" />
        </mxCell>
        <mxCell id="iCtBEtqFeT84g1pX9Pqj-58" value="" style="endArrow=none;html=1;rounded=0;entryX=0.427;entryY=1;entryDx=0;entryDy=0;exitX=0.25;exitY=0;exitDx=0;exitDy=0;entryPerimeter=0;" edge="1" parent="1" source="iCtBEtqFeT84g1pX9Pqj-2" target="iCtBEtqFeT84g1pX9Pqj-57">
          <mxGeometry width="50" height="50" relative="1" as="geometry">
            <mxPoint x="865" y="495" as="sourcePoint" />
            <mxPoint x="915" y="445" as="targetPoint" />
          </mxGeometry>
        </mxCell>
        <mxCell id="iCtBEtqFeT84g1pX9Pqj-59" value="location" style="ellipse;whiteSpace=wrap;html=1;" vertex="1" parent="1">
          <mxGeometry x="645" y="354" width="115" height="60" as="geometry" />
        </mxCell>
        <mxCell id="iCtBEtqFeT84g1pX9Pqj-60" value="" style="endArrow=none;html=1;rounded=0;entryX=0.5;entryY=1;entryDx=0;entryDy=0;exitX=0.75;exitY=0;exitDx=0;exitDy=0;" edge="1" parent="1" source="iCtBEtqFeT84g1pX9Pqj-2" target="iCtBEtqFeT84g1pX9Pqj-59">
          <mxGeometry width="50" height="50" relative="1" as="geometry">
            <mxPoint x="865" y="554" as="sourcePoint" />
            <mxPoint x="915" y="504" as="targetPoint" />
          </mxGeometry>
        </mxCell>
        <mxCell id="iCtBEtqFeT84g1pX9Pqj-61" value="" style="endArrow=none;html=1;rounded=0;exitX=0.5;exitY=1;exitDx=0;exitDy=0;entryX=0.5;entryY=0;entryDx=0;entryDy=0;" edge="1" parent="1" source="iCtBEtqFeT84g1pX9Pqj-12" target="iCtBEtqFeT84g1pX9Pqj-3">
          <mxGeometry width="50" height="50" relative="1" as="geometry">
            <mxPoint x="510" y="455" as="sourcePoint" />
            <mxPoint x="560" y="405" as="targetPoint" />
          </mxGeometry>
        </mxCell>
        <mxCell id="iCtBEtqFeT84g1pX9Pqj-62" value="reviewed" style="rhombus;whiteSpace=wrap;html=1;" vertex="1" parent="1">
          <mxGeometry x="870" y="460" width="80" height="80" as="geometry" />
        </mxCell>
        <mxCell id="iCtBEtqFeT84g1pX9Pqj-63" value="" style="endArrow=none;html=1;rounded=0;exitX=1;exitY=1;exitDx=0;exitDy=0;entryX=0.5;entryY=0;entryDx=0;entryDy=0;" edge="1" parent="1" source="iCtBEtqFeT84g1pX9Pqj-13" target="iCtBEtqFeT84g1pX9Pqj-62">
          <mxGeometry width="50" height="50" relative="1" as="geometry">
            <mxPoint x="760" y="350" as="sourcePoint" />
            <mxPoint x="770" y="360" as="targetPoint" />
          </mxGeometry>
        </mxCell>
        <mxCell id="iCtBEtqFeT84g1pX9Pqj-64" value="" style="endArrow=none;html=1;rounded=0;entryX=0.5;entryY=1;entryDx=0;entryDy=0;exitX=1;exitY=0;exitDx=0;exitDy=0;" edge="1" parent="1" source="iCtBEtqFeT84g1pX9Pqj-3" target="iCtBEtqFeT84g1pX9Pqj-62">
          <mxGeometry width="50" height="50" relative="1" as="geometry">
            <mxPoint x="695" y="430" as="sourcePoint" />
            <mxPoint x="745" y="380" as="targetPoint" />
          </mxGeometry>
        </mxCell>
        <mxCell id="iCtBEtqFeT84g1pX9Pqj-65" value="reviewer" style="ellipse;whiteSpace=wrap;html=1;" vertex="1" parent="1">
          <mxGeometry x="680" y="120" width="90" height="55" as="geometry" />
        </mxCell>
        <mxCell id="iCtBEtqFeT84g1pX9Pqj-66" value="" style="endArrow=none;html=1;rounded=0;entryX=0.5;entryY=1;entryDx=0;entryDy=0;exitX=1;exitY=0;exitDx=0;exitDy=0;" edge="1" parent="1" source="iCtBEtqFeT84g1pX9Pqj-13" target="iCtBEtqFeT84g1pX9Pqj-65">
          <mxGeometry width="50" height="50" relative="1" as="geometry">
            <mxPoint x="675" y="225" as="sourcePoint" />
            <mxPoint x="730" y="210" as="targetPoint" />
          </mxGeometry>
        </mxCell>
      </root>
    </mxGraphModel>
  </diagram>
</mxfile>
